<?xml version="1.0" standalone="no"?>
<!DOCTYPE svg PUBLIC "-//W3C//DTD SVG 20010904//EN"
 "http://www.w3.org/TR/2001/REC-SVG-20010904/DTD/svg10.dtd">
<svg version="1.0" xmlns="http://www.w3.org/2000/svg"
 width="3245.000000pt" height="2200.000000pt" viewBox="0 0 3245.000000 2200.000000"
 preserveAspectRatio="xMidYMid meet">

<g transform="translate(0.000000,2200.000000) scale(0.100000,-0.100000)"
fill="#000000" stroke="none">
<path d="M5500 16498 l-5495 -5498 5492 -5493 c3021 -3020 5496 -5493 5501
-5495 4 -1 1388 1379 3077 3068 2115 2115 3066 3073 3059 3080 -9 9 -260 84
-344 104 -23 5 -301 -270 -2890 -2859 -2448 -2448 -2867 -2863 -2891 -2863
-22 1 -925 899 -5246 5222 -4021 4022 -5220 5227 -5221 5246 -1 21 914 941
5211 5238 4163 4163 5217 5212 5237 5212 20 0 603 -578 2881 -2856 l2856
-2856 204 43 c133 29 204 48 204 56 0 10 -6140 6160 -6140 6151 0 -1 -2473
-2476 -5495 -5500z"/>
<path d="M6117 15892 c-2682 -2682 -4877 -4882 -4877 -4887 0 -16 9754 -9765
9770 -9765 17 0 4880 4859 4880 4876 0 7 -19 16 -42 22 -24 6 -137 41 -252 77
-125 39 -218 63 -230 59 -12 -3 -998 -982 -2191 -2175 -1725 -1725 -2175
-2169 -2195 -2169 -37 0 -9060 9023 -9060 9060 0 37 9013 9050 9050 9050 20 0
460 -435 2170 -2145 1691 -1691 2150 -2145 2170 -2145 13 0 65 11 115 25 193
53 423 115 429 115 3 0 6 8 6 18 0 18 -4837 4862 -4855 4862 -6 0 -2205 -2195
-4888 -4878z"/>
<path d="M6801 15166 c-2726 -2726 -4172 -4179 -4170 -4189 6 -26 8305 -8327
8326 -8327 23 0 3443 3419 3443 3442 0 11 -16 21 -52 32 -29 8 -126 35 -215
61 -89 25 -170 48 -179 52 -12 4 -387 -365 -1462 -1439 -796 -795 -1455 -1448
-1465 -1452 -10 -3 -30 1 -45 8 -38 21 -7662 7648 -7662 7666 0 8 1720 1735
3822 3837 3053 3053 3828 3823 3848 3823 20 0 324 -299 1490 -1465 1107 -1107
1471 -1465 1490 -1467 14 0 113 23 220 52 107 29 210 56 228 60 19 5 36 11 40
15 9 9 -3450 3465 -3468 3465 -8 0 -1893 -1878 -4189 -4174z"/>
<path d="M8980 14431 l0 -89 98 -7 c154 -12 248 -59 293 -147 48 -95 49 -116
49 -1464 0 -1123 -2 -1271 -16 -1340 -18 -87 -30 -116 -70 -163 -49 -59 -150
-92 -316 -106 l-78 -7 0 -70 c0 -121 -114 -108 930 -108 l910 0 0 89 0 88
-152 7 c-249 12 -372 51 -438 141 -79 106 -90 205 -90 793 l0 452 323 0 c432
0 606 21 872 101 355 108 599 324 693 614 92 282 53 606 -101 838 -62 92 -89
119 -197 201 -173 130 -419 215 -728 251 -103 12 -298 15 -1054 15 l-928 0 0
-89z m1825 -190 c245 -63 393 -213 457 -461 18 -70 21 -113 21 -250 0 -184
-17 -278 -73 -399 -40 -85 -159 -207 -243 -250 -167 -83 -287 -104 -612 -105
l-250 -1 0 721 c0 689 1 723 19 742 10 12 28 23 40 26 11 2 143 3 291 1 232
-3 281 -7 350 -24z"/>
<path d="M13379 14503 c-15 -9 -34 -29 -43 -45 -16 -26 -16 -30 0 -56 24 -41
46 -52 148 -73 190 -40 259 -122 299 -354 17 -99 17 -2409 0 -2508 -37 -211
-103 -290 -278 -330 -38 -9 -109 -19 -157 -22 l-88 -7 0 -84 0 -84 710 0 710
0 0 68 c0 90 -9 100 -95 108 -83 7 -213 37 -261 60 -70 33 -113 111 -145 256
-18 88 -19 140 -19 1315 0 795 3 1223 10 1223 10 0 52 -76 65 -120 4 -13 23
-57 41 -97 19 -40 34 -76 34 -79 0 -4 18 -48 39 -98 22 -50 70 -163 106 -251
37 -88 73 -173 80 -190 33 -75 125 -296 125 -300 0 -2 11 -28 24 -57 14 -29
47 -107 74 -173 92 -219 184 -440 197 -470 33 -75 125 -296 125 -300 0 -2 11
-28 24 -57 14 -29 47 -107 74 -173 100 -238 184 -441 198 -470 7 -16 31 -75
54 -130 22 -55 48 -106 57 -112 12 -9 64 -13 178 -13 l161 0 68 173 c38 94 76
190 86 212 10 22 70 171 134 330 64 160 123 304 131 320 7 17 66 161 130 320
64 160 122 304 130 320 7 17 61 147 118 290 237 586 386 951 454 1113 3 6 12
12 20 12 12 0 14 -165 10 -1257 -3 -1150 -5 -1263 -21 -1322 -51 -190 -155
-258 -423 -277 l-93 -6 0 -89 0 -89 880 0 880 0 0 89 0 89 -92 7 c-96 7 -218
35 -276 62 -67 32 -120 123 -146 249 -14 73 -16 213 -16 1310 l0 1229 23 91
c27 104 63 172 110 208 48 37 148 66 251 74 l91 7 3 58 c3 52 0 60 -27 87
l-29 30 -650 0 c-520 0 -652 -3 -660 -13 -6 -7 -32 -67 -57 -132 -26 -66 -141
-356 -255 -645 -306 -769 -653 -1647 -707 -1785 -26 -66 -51 -126 -56 -132
-12 -16 -37 -17 -37 -2 0 25 -1066 2675 -1082 2691 -17 17 -62 18 -665 18
-581 -1 -651 -2 -674 -17z"/>
<path d="M12306 11555 c-75 -30 -166 -118 -197 -189 -34 -77 -33 -202 2 -276
66 -137 196 -217 337 -208 98 7 173 40 237 103 74 75 98 140 93 260 -2 59 -9
102 -21 126 -20 40 -97 124 -142 155 -84 58 -211 70 -309 29z"/>
<path d="M8790 9985 l0 -75 9465 0 9465 0 0 75 0 75 -9465 0 -9465 0 0 -75z"/>
<path d="M23675 9301 c-94 -43 -140 -153 -102 -244 18 -41 82 -105 113 -113
14 -4 53 -4 88 -2 71 4 124 35 151 88 21 41 20 158 -2 190 -66 94 -156 124
-248 81z"/>
<path d="M9060 9110 c0 -43 4 -54 34 -84 19 -18 40 -51 47 -72 10 -30 14 -202
17 -714 3 -694 -1 -803 -35 -861 -24 -40 -95 -72 -170 -77 l-63 -4 0 -49 0
-48 865 2 865 2 0 26 c0 32 28 436 34 502 l5 47 -47 0 -47 0 -24 -81 c-35
-116 -64 -172 -118 -230 -55 -59 -80 -74 -183 -105 -67 -21 -95 -24 -259 -24
-263 0 -360 29 -418 128 l-28 47 -3 321 -3 321 68 6 c140 14 196 9 282 -24 60
-23 89 -40 111 -67 31 -37 70 -143 70 -188 0 -22 4 -24 45 -24 l45 0 0 370 c0
405 2 395 -58 345 -21 -17 -34 -43 -47 -91 -39 -143 -112 -183 -357 -191
l-158 -6 0 357 c0 343 1 357 20 376 19 19 33 20 243 20 250 0 376 -14 459 -52
67 -31 122 -86 144 -144 l17 -44 65 0 65 0 -7 78 c-4 42 -10 112 -14 155 -6
70 -10 82 -35 103 l-28 24 -700 0 -699 0 0 -50z"/>
<path d="M14189 8843 c-8 -10 -28 -37 -44 -61 -66 -99 -205 -202 -327 -241
-38 -12 -38 -13 -38 -66 l0 -54 93 -3 92 -3 5 -510 c6 -571 2 -544 80 -623 65
-68 134 -95 255 -100 161 -7 267 29 331 113 23 30 26 41 18 63 -13 36 -35 38
-83 7 -30 -21 -52 -27 -95 -27 -67 -1 -97 17 -128 75 -23 42 -23 45 -26 525
l-3 482 146 0 145 0 0 65 0 65 -145 0 -145 0 0 155 0 155 -58 0 c-44 0 -63 -4
-73 -17z"/>
<path d="M11630 8534 c-118 -24 -225 -46 -237 -49 -19 -4 -23 -12 -23 -45 l0
-40 64 0 c72 0 121 -25 145 -75 23 -46 33 -251 29 -590 -3 -290 -4 -313 -24
-350 -25 -48 -72 -74 -149 -82 l-55 -6 0 -48 0 -49 400 0 400 0 0 49 0 48 -53
6 c-85 8 -125 30 -147 79 -18 40 -20 68 -20 372 0 304 2 334 21 400 27 92 56
141 117 198 60 56 111 73 201 64 131 -12 197 -70 237 -207 23 -81 24 -92 23
-423 0 -296 -2 -347 -17 -385 -22 -58 -54 -80 -135 -94 l-67 -11 0 -48 0 -48
390 0 390 0 0 50 0 50 -38 0 c-53 0 -122 38 -147 80 -19 33 -20 58 -26 400 -5
277 -10 377 -21 416 -28 95 -75 178 -135 238 -110 110 -193 141 -383 140 -104
0 -135 -4 -184 -22 -84 -31 -157 -77 -227 -144 -33 -32 -65 -56 -70 -53 -5 4
-9 21 -9 40 0 49 -21 185 -29 184 -3 -1 -103 -21 -221 -45z"/>
<path d="M15918 8565 c-155 -29 -279 -96 -384 -207 -129 -136 -186 -285 -187
-493 -1 -142 15 -213 73 -331 82 -169 261 -301 459 -340 102 -20 274 -15 371
11 72 19 161 61 230 108 61 42 130 107 130 122 0 21 -41 65 -60 65 -11 0 -48
-20 -84 -45 -123 -86 -231 -120 -362 -113 -98 5 -159 32 -230 103 -99 99 -137
207 -138 390 l-1 130 443 5 c379 4 444 7 452 20 15 23 12 139 -5 204 -48 185
-173 311 -358 363 -78 21 -258 25 -349 8z m237 -146 c91 -48 127 -108 129
-213 1 -65 -1 -71 -24 -83 -37 -19 -500 -19 -500 0 0 35 36 127 67 175 43 64
88 100 156 123 69 24 124 23 172 -2z"/>
<path d="M17608 8532 l-248 -47 0 -42 0 -43 45 0 c52 0 118 -29 139 -63 9 -12
23 -51 33 -87 15 -56 17 -115 18 -445 0 -360 -1 -382 -20 -420 -24 -48 -76
-77 -152 -83 l-53 -4 0 -49 0 -49 425 0 425 0 0 49 0 48 -77 7 c-92 7 -141 29
-168 76 -19 33 -20 52 -20 290 1 240 2 261 27 366 44 184 108 284 183 284 23
0 51 -13 96 -47 75 -55 134 -67 190 -38 116 60 141 209 47 289 -109 94 -303
64 -448 -70 -51 -48 -109 -121 -124 -157 -11 -27 -23 19 -41 148 -10 74 -21
134 -24 134 -3 -1 -117 -22 -253 -47z"/>
<path d="M19986 8564 c-89 -20 -188 -70 -253 -128 -28 -25 -54 -46 -57 -46 -3
0 -6 38 -6 85 l0 85 -27 0 c-16 0 -130 -14 -255 -31 l-228 -32 0 -50 0 -50 48
7 c65 8 127 -23 156 -79 21 -39 21 -50 21 -780 l0 -740 -22 -48 c-20 -43 -29
-51 -96 -81 -75 -34 -87 -47 -87 -92 l0 -24 430 0 430 0 0 28 c0 45 -20 62
-92 77 -114 24 -155 47 -181 102 -21 45 -22 64 -25 311 -2 144 0 262 4 262 4
0 28 -20 54 -44 86 -81 187 -116 330 -116 347 1 609 234 661 589 22 156 -1
305 -73 451 -76 156 -237 290 -403 334 -89 24 -246 29 -329 10z m254 -159 c92
-63 140 -161 166 -343 26 -183 9 -424 -37 -535 -67 -160 -197 -219 -373 -170
-51 14 -71 27 -122 77 -76 76 -100 127 -129 266 -9 46 -15 129 -15 216 0 129
3 149 30 236 50 158 101 218 223 264 91 35 195 31 257 -11z"/>
<path d="M21768 8532 l-248 -47 0 -42 0 -43 45 0 c52 0 118 -29 139 -63 9 -12
23 -51 33 -87 15 -56 17 -115 18 -445 0 -360 -1 -382 -20 -420 -24 -48 -76
-77 -152 -83 l-53 -4 0 -49 0 -49 425 0 425 0 0 49 0 48 -77 7 c-92 7 -141 29
-168 76 -19 33 -20 52 -20 290 1 240 2 261 27 366 44 184 108 284 183 284 23
0 51 -13 96 -47 75 -55 134 -67 190 -38 116 60 141 209 47 289 -109 94 -303
64 -448 -70 -51 -48 -109 -121 -124 -157 -11 -27 -23 19 -41 148 -10 74 -21
134 -24 134 -3 -1 -117 -22 -253 -47z"/>
<path d="M23637 8531 c-292 -48 -297 -50 -297 -102 0 -26 2 -27 73 -31 74 -5
119 -24 137 -58 20 -37 30 -207 30 -516 0 -329 -7 -410 -38 -454 -25 -34 -98
-70 -144 -70 l-38 0 0 -50 0 -50 395 0 395 0 0 48 0 48 -66 11 c-79 14 -110
33 -132 81 -15 33 -17 101 -20 615 -2 317 -6 576 -10 576 -4 -1 -132 -22 -285
-48z"/>
<path d="M25206 8569 c-113 -27 -236 -131 -277 -237 -34 -86 -33 -208 3 -284
46 -99 169 -208 352 -309 99 -55 182 -122 221 -177 24 -36 30 -54 30 -97 0
-93 -58 -144 -174 -153 -167 -12 -277 73 -342 262 l-28 81 -51 3 -50 3 0 -231
0 -231 37 3 c31 2 42 10 66 46 l29 43 35 -22 c102 -63 196 -89 328 -89 156 0
263 39 352 129 82 82 103 133 103 257 0 92 -3 106 -30 162 -20 39 -54 83 -99
124 -66 63 -112 94 -311 210 -113 67 -195 147 -206 202 -25 135 83 218 228
174 56 -17 118 -83 162 -171 39 -80 48 -87 102 -87 l34 0 0 190 c0 182 -1 190
-20 190 -10 0 -35 -14 -55 -31 l-35 -32 -63 31 c-34 16 -86 35 -115 41 -62 13
-171 13 -226 0z"/>
<path d="M27168 8565 c-159 -30 -256 -83 -374 -203 -142 -143 -194 -277 -194
-499 0 -153 11 -205 66 -321 137 -285 474 -424 816 -337 54 13 110 31 125 40
119 66 147 84 181 115 21 19 47 48 57 63 l18 28 -31 32 -31 31 -43 -32 c-214
-160 -450 -188 -597 -72 -124 98 -185 253 -179 455 l3 100 450 5 c248 3 451 7
453 8 1 1 2 37 2 80 0 151 -46 265 -146 366 -106 105 -205 144 -389 151 -73 3
-136 0 -187 -10z m250 -154 c76 -39 127 -137 120 -231 -5 -68 -13 -70 -292
-70 l-239 0 5 44 c11 96 96 212 190 260 45 23 62 26 113 23 35 -3 79 -14 103
-26z"/>
</g>
</svg>
